HIERARCHY
ROOT pelvis
{
	OFFSET 0.000000 0.000000 0.000000
	CHANNELS 6 Xposition Yposition Zposition Zrotation Xrotation Yrotation
	JOINT lfemur
	{
		OFFSET 11.446000 0.000000 0.000000
		CHANNELS 3 Zrotation Xrotation Yrotation
		JOINT ltibia
		{
			OFFSET 0.000000 -42.030400 0.000000
			CHANNELS 3 Zrotation Xrotation Yrotation
			JOINT lfoot
			{
				OFFSET 0.000000 -39.930200 0.000000
				CHANNELS 3 Zrotation Xrotation Yrotation
				JOINT ltoes
				{
					OFFSET 0.000000 0.000000 11.775800
					CHANNELS 3 Zrotation Xrotation Yrotation
					End Site
					{
					    OFFSET 0.000000 0.000000 5.000000
					}
				}
			}
		}
	}
	JOINT rfemur
	{
		OFFSET -11.446000 0.000000 0.000000
		CHANNELS 3 Zrotation Xrotation Yrotation
		JOINT rtibia
		{
			OFFSET 0.000000 -42.030400 0.000000
			CHANNELS 3 Zrotation Xrotation Yrotation
			JOINT rfoot
			{
				OFFSET 0.000000 -39.930200 0.000000
				CHANNELS 3 Zrotation Xrotation Yrotation
				JOINT rtoes
				{
					OFFSET 0.000000 0.000000 11.775800
					CHANNELS 3 Zrotation Xrotation Yrotation
					End Site
					{
					    OFFSET 0.000000 0.000000 5.000000
					}
				}
			}
		}
	}
	JOINT thorax
	{
		OFFSET 0.000000 11.255600 -5.000000
		CHANNELS 3 Zrotation Xrotation Yrotation
		JOINT head
		{
			OFFSET 0.000000 43.799300 0.000000
			CHANNELS 3 Zrotation Xrotation Yrotation
			End Site
			{
			    OFFSET 0.000000 5.000000 0.000000
			}
		}
		JOINT lclavicle
		{
			OFFSET 0.000000 39.863000 0.000000
			CHANNELS 3 Zrotation Xrotation Yrotation
			JOINT lhumerus
			{
				OFFSET 17.380600 4.958300 0.000000
				CHANNELS 3 Zrotation Xrotation Yrotation
				JOINT lradius
				{
					OFFSET 0.000000 -27.561300 0.000000
					CHANNELS 3 Zrotation Xrotation Yrotation
					JOINT lhand
					{
						OFFSET 0.000000 -26.933000 0.000000
						CHANNELS 3 Zrotation Xrotation Yrotation
						End Site
						{
						    OFFSET 0.000000 -5.000000 0.000000
						}
					}
				}
			}
		}
		JOINT rclavicle
		{
			OFFSET 0.000000 39.863000 0.000000
			CHANNELS 3 Zrotation Xrotation Yrotation
			JOINT rhumerus
			{
				OFFSET -17.380600 4.958300 0.000000
				CHANNELS 3 Zrotation Xrotation Yrotation
				JOINT rradius
				{
					OFFSET 0.000000 -27.561300 0.000000
					CHANNELS 3 Zrotation Xrotation Yrotation
					JOINT rhand
					{
						OFFSET 0.000000 -26.933000 0.000000
						CHANNELS 3 Zrotation Xrotation Yrotation
						End Site
						{
						    OFFSET 0.000000 -5.000000 0.000000
						}
					}
				}
			}
		}
	}
}
MOTION
Frames:	14
Frame Time:	0.0333333
-226.513 89.3104 103.477 1.06488 0.196993 92.3061 -2.61057 -0.510755 0.999314 1.41027 11.6272 15.4164 4.84771 2.94936 -0.00878785 -1.0734e-015 -5 -3.1927e-015 1.86093 1.95376 -1.23036 -0.749838 10.0266 -13.5053 -1.77998 4.3946 -0.126656 -3.56323e-015 -5 1.59635e-015 -3.84238 -2.32428 -1.35141 3.40843 11.8553 -2.8261 7.95139e-016 -8.07563e-016 -3.97569e-016 10.0566 -11.2873 64.6773 5.12277 -0.002852 -117.558 10.4347 -8.537 -8.67113 7.95139e-016 -8.07563e-016 -3.97569e-016 -9.91853 -3.05951 6.9329 12.6226 -16.9747 31.599 5.6666 13.5301 9.51036 
-226.499 89.3106 103.477 1.08542 0.212786 92.2531 -2.61299 -0.417202 1.0295 1.37842 11.5008 15.4432 4.88588 2.99893 -0.0125752 -5.56525e-016 -5 -6.38541e-015 1.84211 1.96738 -1.24418 -0.749604 10.0571 -13.4597 -1.85135 4.36298 -0.127534 -3.89622e-015 -5 3.1927e-015 -3.81977 -2.29952 -1.37176 3.32089 11.8736 -2.8543 0 1.13059e-015 -0 9.90256 -11.0823 64.6111 5.12395 -0.00278635 -117.46 10.5269 -8.60082 -8.65409 0 1.13059e-015 -0 -9.95243 -3.07718 6.96018 12.6631 -16.9123 31.5395 5.61807 13.5921 9.51063 
-226.491 89.3108 103.485 1.105 0.256068 92.1739 -2.63066 -0.29259 1.0589 1.33002 11.3063 15.4932 4.97331 3.08903 -0.0131177 1.43132e-015 -5 -6.38541e-015 1.78737 1.95442 -1.29009 -0.744201 10.1257 -13.3497 -1.89483 4.31637 -0.127488 -1.07587e-015 -5 -4.78906e-015 -3.8272 -2.21017 -1.41945 3.09768 11.922 -2.91715 3.97569e-016 -4.06887e-015 -1.98785e-016 9.85778 -10.9623 64.6084 5.06185 -0.154627 -117.317 10.5288 -8.70154 -8.64311 3.97569e-016 -4.06887e-015 -1.98785e-016 -9.93336 -3.17188 7.49245 12.5494 -17.1245 31.6633 5.5019 13.1658 9.54029 
-226.503 89.3108 103.497 1.08977 0.325826 92.0876 -2.69042 -0.234895 1.03788 1.30434 11.1613 15.5928 5.01887 3.17149 -0.013587 7.5549e-016 -5 -9.57811e-015 1.70202 1.83946 -1.35024 -0.734678 10.298 -13.1957 -1.86349 4.24695 -0.127366 -1.47599e-015 -5 1.59635e-015 -3.85184 -2.18763 -1.4657 2.81369 12.1601 -2.89379 -7.95139e-016 -2.48481e-017 -1.98785e-016 10.0735 -11.067 64.7538 5.04993 -0.0764227 -117.338 10.5271 -8.70611 -8.64371 -7.95139e-016 -2.48481e-017 -1.98785e-016 -9.9081 -3.25875 7.93006 12.4452 -17.2949 32.0778 5.38323 12.5568 9.57835 
-226.527 89.3114 103.51 1.03827 0.396301 91.9924 -2.76566 -0.235763 0.99122 1.29716 11.054 15.7285 4.99182 3.23594 -0.0139904 1.03375e-015 -5 -6.38541e-015 1.62276 1.64091 -1.3863 -0.74057 10.5518 -13.0577 -1.84802 4.1414 -0.127174 -5.15844e-015 -5 -1.59635e-015 -3.85527 -2.2852 -1.46028 2.62991 12.5021 -2.79198 -3.97569e-016 1.73937e-016 2.98177e-016 10.0742 -11.0711 64.9397 5.2073 -0.0592369 -117.399 10.5902 -8.81604 -8.62607 -3.97569e-016 1.73937e-016 2.98177e-016 -9.92886 -3.27837 7.7546 12.5434 -17.0926 32.4701 5.32329 12.4101 9.58927 
-226.54 89.3162 103.518 1.00235 0.443141 91.9169 -2.81372 -0.199196 0.969113 1.28645 10.9051 15.8285 4.9612 3.3029 -0.0143359 1.19271e-015 -5 -0 1.56911 1.52001 -1.41356 -0.741077 10.695 -12.9684 -1.90621 4.0709 -0.12693 -7.67824e-016 -5 1.59635e-015 -3.84421 -2.32189 -1.38257 2.65354 12.6331 -2.7484 1.63797e-033 9.44227e-016 -9.93923e-017 9.92282 -10.9878 65.0305 5.30652 -0.0762782 -117.255 10.7261 -8.99352 -8.59269 1.63797e-033 9.44227e-016 -9.93923e-017 -9.95666 -3.27691 7.53796 12.6501 -16.8957 32.5297 5.30156 12.5305 9.58485 
-226.524 89.3234 103.519 1.03374 0.481978 91.9046 -2.84927 -0.0504401 0.961229 1.27666 10.6893 15.8515 4.97629 3.38638 -0.0146311 1.98785e-015 -5 -0 1.50627 1.58436 -1.49584 -0.701477 10.6517 -12.8964 -1.97386 4.05827 -0.126644 1.00014e-015 -5 -0 -3.8418 -2.1642 -1.2815 2.80179 12.5114 -2.80681 3.97569e-016 -8.57259e-016 9.93923e-017 10.0078 -11.0653 64.9455 5.07082 -0.00285981 -116.917 10.6311 -8.97518 -8.60681 3.97569e-016 -8.57259e-016 9.93923e-017 -9.97012 -3.29633 7.82665 12.5563 -17.0782 32.4117 5.26979 12.2815 9.59875 
-226.495 89.3246 103.511 1.10742 0.54198 91.9614 -2.91511 0.140011 0.919817 1.28607 10.4833 15.8335 5.00775 3.472 -0.0148835 1.0734e-015 -5 3.1927e-015 1.40767 1.71662 -1.63353 -0.636376 10.5951 -12.825 -1.97916 4.02951 -0.126312 1.84872e-015 -5 -1.59635e-015 -3.85037 -1.97805 -1.23028 2.88136 12.491 -2.87198 -3.97569e-016 -6.33626e-016 9.93923e-017 10.1934 -11.2426 64.7806 4.73543 -0.0816878 -116.668 10.2067 -8.83304 -8.67149 -3.97569e-016 -6.33626e-016 9.93923e-017 -10.0065 -3.32177 7.90926 12.5115 -17.1621 32.5515 5.24751 11.8738 9.61945 
-226.485 89.3253 103.507 1.12546 0.60658 92.0349 -2.98811 0.205964 0.857726 1.30163 10.3924 15.821 5.02777 3.52472 -0.0151001 -4.37326e-015 -5 -0 1.32304 1.72649 -1.72425 -0.602511 10.6564 -12.8002 -1.9505 3.97114 -0.12594 -2.83286e-016 -5 1.59635e-015 -3.85963 -1.97236 -1.24351 2.79174 12.8073 -2.86945 3.7501e-033 1.08089e-015 -1.98785e-016 10.2345 -11.33 64.7669 4.72515 -0.13566 -116.687 10.0856 -8.81772 -8.68704 3.7501e-033 1.08089e-015 -1.98785e-016 -10.0672 -3.35561 6.9585 12.835 -16.5586 33.0656 5.24568 12.0768 9.60999 
-226.509 89.3251 103.519 1.04854 0.624352 92.0699 -2.9942 0.0833363 0.843603 1.29119 10.4476 15.8071 5.04623 3.51792 -0.0152879 -5.16876e-016 -5 3.1927e-015 1.32645 1.58731 -1.68657 -0.625877 10.7651 -12.8626 -1.93723 3.93222 -0.12554 -9.24313e-016 -5 -3.1927e-015 -3.84975 -2.07693 -1.27227 2.59542 13.2678 -2.81831 3.97569e-016 -2.54072e-015 -0 10.1573 -11.275 64.8455 4.89328 -0.0340167 -116.732 10.3724 -8.90982 -8.64481 3.97569e-016 -2.54072e-015 -0 -10.119 -3.41601 5.59364 13.2916 -15.6963 33.7065 5.18374 12.6776 9.58574 
-226.542 89.3245 103.545 0.943728 0.584793 92.0803 -2.91821 -0.117767 0.895955 1.25751 10.588 15.7528 5.05325 3.46342 -0.0154548 1.47097e-015 -5 3.1927e-015 1.41587 1.4545 -1.56421 -0.673587 10.769 -12.9923 -1.93495 3.96753 -0.12513 -1.86114e-015 -5 1.59635e-015 -3.78849 -2.13293 -1.2812 2.41462 13.6472 -2.77744 3.97569e-016 -7.33018e-016 1.98785e-016 10.1116 -11.1034 64.6839 4.7392 -0.00285776 -116.482 10.2529 -8.89493 -8.66127 3.97569e-016 -7.33018e-016 1.98785e-016 -10.1736 -3.44078 5.21315 13.3821 -15.5134 34.0393 5.00957 12.6583 9.59773 
-226.558 89.3242 103.573 0.882447 0.53132 92.132 -2.82568 -0.270126 0.956182 1.23415 10.7338 15.641 5.02334 3.40587 -0.015609 2.90229e-015 -5 -3.1927e-015 1.51801 1.42813 -1.4605 -0.701494 10.6745 -13.1528 -1.93337 4.03725 -0.124709 2.82026e-015 -5 -0 -3.66736 -2.21233 -1.27978 2.30043 14.0798 -2.79498 3.97569e-016 -1.86982e-015 -0 10.1018 -10.8226 64.276 4.32343 -0.0879321 -115.991 9.64559 -8.84759 -8.73939 3.97569e-016 -1.86982e-015 -0 -10.2734 -3.31258 5.86398 13.1245 -16.001 33.8512 4.77208 12.0388 9.64001 
-226.555 89.3241 103.592 0.867161 0.503097 92.23 -2.77665 -0.340641 0.9744 1.23827 10.8292 15.5178 4.97944 3.37994 -0.0157587 1.86854e-015 -5 3.1927e-015 1.57377 1.46273 -1.42422 -0.699799 10.5947 -13.2963 -1.95098 4.06895 -0.124275 9.19019e-017 -5 3.1927e-015 -3.5266 -2.43311 -1.26538 2.21486 14.8256 -2.86338 -0 -1.26104e-015 -0 10.0403 -10.534 64.0905 4.23168 -0.0993287 -115.592 9.53969 -8.99472 -8.73973 -0 -1.26104e-015 -0 -10.4245 -3.03643 6.35872 12.9626 -16.3235 33.2908 4.54059 11.8765 9.6606 
-226.537 89.3243 103.595 0.881043 0.506075 92.2799 -2.78032 -0.316654 0.958581 1.25477 10.8278 15.4748 4.96432 3.3845 -0.0159114 -1.59028e-015 -5 -0 1.57364 1.50216 -1.44003 -0.688842 10.5827 -13.3342 -1.97563 4.05229 -0.123832 1.28963e-015 -5 -1.59635e-015 -3.4103 -2.64101 -1.20205 2.12066 15.9129 -2.87914 -7.95139e-016 1.36664e-016 -1.98785e-016 9.96783 -10.4289 64.3871 4.61438 -0.0885068 -115.523 9.90818 -9.07498 -8.68784 -7.95139e-016 1.36664e-016 -1.98785e-016 -10.6203 -2.80445 6.19614 13.0555 -16.1813 32.7342 4.38236 12.2106 9.65631 
